%TF.GenerationSoftware,KiCad,Pcbnew,(6.0.2)*%
%TF.CreationDate,2022-08-12T14:47:40-07:00*%
%TF.ProjectId,Mega68k,4d656761-3638-46b2-9e6b-696361645f70,rev?*%
%TF.SameCoordinates,Original*%
%TF.FileFunction,Soldermask,Bot*%
%TF.FilePolarity,Negative*%
%FSLAX46Y46*%
G04 Gerber Fmt 4.6, Leading zero omitted, Abs format (unit mm)*
G04 Created by KiCad (PCBNEW (6.0.2)) date 2022-08-12 14:47:40*
%MOMM*%
%LPD*%
G01*
G04 APERTURE LIST*
G04 Aperture macros list*
%AMRoundRect*
0 Rectangle with rounded corners*
0 $1 Rounding radius*
0 $2 $3 $4 $5 $6 $7 $8 $9 X,Y pos of 4 corners*
0 Add a 4 corners polygon primitive as box body*
4,1,4,$2,$3,$4,$5,$6,$7,$8,$9,$2,$3,0*
0 Add four circle primitives for the rounded corners*
1,1,$1+$1,$2,$3*
1,1,$1+$1,$4,$5*
1,1,$1+$1,$6,$7*
1,1,$1+$1,$8,$9*
0 Add four rect primitives between the rounded corners*
20,1,$1+$1,$2,$3,$4,$5,0*
20,1,$1+$1,$4,$5,$6,$7,0*
20,1,$1+$1,$6,$7,$8,$9,0*
20,1,$1+$1,$8,$9,$2,$3,0*%
G04 Aperture macros list end*
%ADD10C,2.000000*%
%ADD11R,1.600000X1.600000*%
%ADD12C,1.600000*%
%ADD13C,1.500000*%
%ADD14R,1.422400X1.422400*%
%ADD15C,1.422400*%
%ADD16R,1.700000X1.700000*%
%ADD17O,1.700000X1.700000*%
%ADD18C,3.200000*%
%ADD19O,1.727200X1.727200*%
%ADD20RoundRect,0.150000X0.875000X0.150000X-0.875000X0.150000X-0.875000X-0.150000X0.875000X-0.150000X0*%
%ADD21RoundRect,0.225000X0.225000X0.250000X-0.225000X0.250000X-0.225000X-0.250000X0.225000X-0.250000X0*%
G04 APERTURE END LIST*
D10*
%TO.C,SW2*%
X117044400Y-65364800D03*
X123544400Y-65364800D03*
X117044400Y-69864800D03*
X123544400Y-69864800D03*
%TD*%
D11*
%TO.C,X1*%
X71221600Y-73558400D03*
D12*
X78841600Y-73558400D03*
X78841600Y-65938400D03*
X71221600Y-65938400D03*
%TD*%
D13*
%TO.C,Y1*%
X90892800Y-66522600D03*
X86012800Y-66522600D03*
%TD*%
D14*
%TO.C,U2*%
X99136200Y-80010000D03*
D15*
X96596200Y-77470000D03*
X96596200Y-80010000D03*
X94056200Y-77470000D03*
X94056200Y-80010000D03*
X91516200Y-77470000D03*
X88976200Y-80010000D03*
X91516200Y-80010000D03*
X88976200Y-82550000D03*
X91516200Y-82550000D03*
X88976200Y-85090000D03*
X91516200Y-85090000D03*
X88976200Y-87630000D03*
X91516200Y-87630000D03*
X88976200Y-90170000D03*
X91516200Y-90170000D03*
X88976200Y-92710000D03*
X91516200Y-95250000D03*
X91516200Y-92710000D03*
X94056200Y-95250000D03*
X94056200Y-92710000D03*
X96596200Y-95250000D03*
X96596200Y-92710000D03*
X99136200Y-95250000D03*
X99136200Y-92710000D03*
X101676200Y-95250000D03*
X101676200Y-92710000D03*
X104216200Y-95250000D03*
X106756200Y-92710000D03*
X104216200Y-92710000D03*
X106756200Y-90170000D03*
X104216200Y-90170000D03*
X106756200Y-87630000D03*
X104216200Y-87630000D03*
X106756200Y-85090000D03*
X104216200Y-85090000D03*
X106756200Y-82550000D03*
X104216200Y-82550000D03*
X106756200Y-80010000D03*
X104216200Y-77470000D03*
X104216200Y-80010000D03*
X101676200Y-77470000D03*
X101676200Y-80010000D03*
X99136200Y-77470000D03*
%TD*%
D16*
%TO.C,J3*%
X137083800Y-76682600D03*
D17*
X134543800Y-76682600D03*
X132003800Y-76682600D03*
X129463800Y-76682600D03*
X126923800Y-76682600D03*
X124383800Y-76682600D03*
X121843800Y-76682600D03*
X119303800Y-76682600D03*
%TD*%
%TO.C,J4*%
X142961200Y-50652600D03*
X142961200Y-53192600D03*
X140421200Y-50652600D03*
X140421200Y-53192600D03*
X137881200Y-50652600D03*
X137881200Y-53192600D03*
X135341200Y-50652600D03*
X135341200Y-53192600D03*
X132801200Y-50652600D03*
X132801200Y-53192600D03*
X130261200Y-50652600D03*
X130261200Y-53192600D03*
X127721200Y-50652600D03*
X127721200Y-53192600D03*
X125181200Y-50652600D03*
X125181200Y-53192600D03*
X122641200Y-50652600D03*
X122641200Y-53192600D03*
X120101200Y-50652600D03*
X120101200Y-53192600D03*
X117561200Y-50652600D03*
X117561200Y-53192600D03*
X115021200Y-50652600D03*
X115021200Y-53192600D03*
X112481200Y-50652600D03*
X112481200Y-53192600D03*
X109941200Y-50652600D03*
X109941200Y-53192600D03*
X107401200Y-50652600D03*
X107401200Y-53192600D03*
X104861200Y-50652600D03*
X104861200Y-53192600D03*
X102321200Y-50652600D03*
X102321200Y-53192600D03*
X99781200Y-50652600D03*
X99781200Y-53192600D03*
X97241200Y-50652600D03*
X97241200Y-53192600D03*
X94701200Y-50652600D03*
X94701200Y-53192600D03*
X92161200Y-50652600D03*
X92161200Y-53192600D03*
X89621200Y-50652600D03*
X89621200Y-53192600D03*
X87081200Y-50652600D03*
X87081200Y-53192600D03*
X84541200Y-50652600D03*
X84541200Y-53192600D03*
X82001200Y-50652600D03*
X82001200Y-53192600D03*
X79461200Y-50652600D03*
X79461200Y-53192600D03*
X76921200Y-50652600D03*
X76921200Y-53192600D03*
X74381200Y-50652600D03*
X74381200Y-53192600D03*
X71841200Y-50652600D03*
X71841200Y-53192600D03*
X69301200Y-50652600D03*
X69301200Y-53192600D03*
X66761200Y-50652600D03*
X66761200Y-53192600D03*
X64221200Y-50652600D03*
X64221200Y-53192600D03*
X61681200Y-50652600D03*
X61681200Y-53192600D03*
X59141200Y-50652600D03*
D16*
X59141200Y-53192600D03*
%TD*%
D14*
%TO.C,IC1*%
X71704200Y-81889600D03*
D15*
X71704200Y-84429600D03*
X69164200Y-81889600D03*
X69164200Y-84429600D03*
X66624200Y-81889600D03*
X66624200Y-84429600D03*
X64084200Y-81889600D03*
X61544200Y-84429600D03*
X64084200Y-84429600D03*
X61544200Y-86969600D03*
X64084200Y-86969600D03*
X61544200Y-89509600D03*
X64084200Y-89509600D03*
X61544200Y-92049600D03*
X64084200Y-92049600D03*
X61544200Y-94589600D03*
X64084200Y-94589600D03*
X61544200Y-97129600D03*
X64084200Y-97129600D03*
X61544200Y-99669600D03*
X64084200Y-102209600D03*
X64084200Y-99669600D03*
X66624200Y-102209600D03*
X66624200Y-99669600D03*
X69164200Y-102209600D03*
X69164200Y-99669600D03*
X71704200Y-102209600D03*
X71704200Y-99669600D03*
X74244200Y-102209600D03*
X74244200Y-99669600D03*
X76784200Y-102209600D03*
X76784200Y-99669600D03*
X79324200Y-102209600D03*
X81864200Y-99669600D03*
X79324200Y-99669600D03*
X81864200Y-97129600D03*
X79324200Y-97129600D03*
X81864200Y-94589600D03*
X79324200Y-94589600D03*
X81864200Y-92049600D03*
X79324200Y-92049600D03*
X81864200Y-89509600D03*
X79324200Y-89509600D03*
X81864200Y-86969600D03*
X79324200Y-86969600D03*
X81864200Y-84429600D03*
X79324200Y-81889600D03*
X79324200Y-84429600D03*
X76784200Y-81889600D03*
X76784200Y-84429600D03*
X74244200Y-81889600D03*
X74244200Y-84429600D03*
%TD*%
D18*
%TO.C,XA1*%
X144729200Y-108940600D03*
X138379200Y-60680600D03*
D19*
X76149200Y-108940600D03*
D18*
X114249200Y-103860600D03*
X63449200Y-60680600D03*
X62179200Y-108940600D03*
X114249200Y-75920600D03*
D19*
X83769200Y-108940600D03*
X86309200Y-108940600D03*
X114376200Y-81000600D03*
X142189200Y-60680600D03*
X144729200Y-60680600D03*
X99009200Y-108940600D03*
X101549200Y-108940600D03*
X104089200Y-108940600D03*
X106629200Y-108940600D03*
X109169200Y-108940600D03*
X111709200Y-108940600D03*
X114249200Y-108940600D03*
X116789200Y-108940600D03*
X121869200Y-108940600D03*
X124409200Y-108940600D03*
X126949200Y-108940600D03*
X129489200Y-108940600D03*
X132029200Y-108940600D03*
X134569200Y-108940600D03*
X137109200Y-108940600D03*
X139649200Y-108940600D03*
X72085200Y-60680600D03*
X111709200Y-60680600D03*
X109169200Y-60680600D03*
X106629200Y-60680600D03*
X104089200Y-60680600D03*
X101549200Y-60680600D03*
X99009200Y-60680600D03*
X96469200Y-60680600D03*
X93929200Y-60680600D03*
X89865200Y-60680600D03*
X87325200Y-60680600D03*
X84785200Y-60680600D03*
X82245200Y-60680600D03*
X79705200Y-60680600D03*
X77165200Y-60680600D03*
X116789200Y-60680600D03*
X119329200Y-60680600D03*
X121869200Y-60680600D03*
X124409200Y-60680600D03*
X126949200Y-60680600D03*
X129489200Y-60680600D03*
X132029200Y-60680600D03*
X134569200Y-60680600D03*
X142189200Y-63220600D03*
X144729200Y-63220600D03*
X142189200Y-65760600D03*
X144729200Y-65760600D03*
X142189200Y-68300600D03*
X144729200Y-68300600D03*
X142189200Y-70840600D03*
X144729200Y-70840600D03*
X142189200Y-73380600D03*
X144729200Y-73380600D03*
X142189200Y-75920600D03*
X144729200Y-75920600D03*
X142189200Y-78460600D03*
X144729200Y-78460600D03*
X142189200Y-81000600D03*
X144729200Y-81000600D03*
X142189200Y-83540600D03*
X144729200Y-83540600D03*
X142189200Y-86080600D03*
X144729200Y-86080600D03*
X142189200Y-88620600D03*
X144729200Y-88620600D03*
X142189200Y-91160600D03*
X144729200Y-91160600D03*
X142189200Y-93700600D03*
X144729200Y-93700600D03*
X142189200Y-96240600D03*
X144729200Y-96240600D03*
X142189200Y-98780600D03*
X144729200Y-98780600D03*
X142189200Y-101320600D03*
X144729200Y-101320600D03*
X74625200Y-60680600D03*
X88849200Y-108940600D03*
X91389200Y-108940600D03*
X114376200Y-86080600D03*
X142189200Y-103860600D03*
X144729200Y-103860600D03*
X78689200Y-108940600D03*
X111836200Y-81000600D03*
X114376200Y-83540600D03*
X81229200Y-108940600D03*
X111836200Y-86080600D03*
X111836200Y-83540600D03*
X67005200Y-60680600D03*
X69545200Y-60680600D03*
X93929200Y-108940600D03*
%TD*%
D10*
%TO.C,SW1*%
X137741800Y-65364800D03*
X131241800Y-65364800D03*
X137741800Y-69864800D03*
X131241800Y-69864800D03*
%TD*%
D16*
%TO.C,J5*%
X98983800Y-65227200D03*
D17*
X101523800Y-65227200D03*
X104063800Y-65227200D03*
X106603800Y-65227200D03*
X109143800Y-65227200D03*
X111683800Y-65227200D03*
%TD*%
D20*
%TO.C,U1*%
X134845400Y-85598000D03*
X134845400Y-86868000D03*
X134845400Y-88138000D03*
X134845400Y-89408000D03*
X134845400Y-90678000D03*
X134845400Y-91948000D03*
X134845400Y-93218000D03*
X134845400Y-94488000D03*
X134845400Y-95758000D03*
X134845400Y-97028000D03*
X134845400Y-98298000D03*
X134845400Y-99568000D03*
X134845400Y-100838000D03*
X134845400Y-102108000D03*
X134845400Y-103378000D03*
X134845400Y-104648000D03*
X121745400Y-104648000D03*
X121745400Y-103378000D03*
X121745400Y-102108000D03*
X121745400Y-100838000D03*
X121745400Y-99568000D03*
X121745400Y-98298000D03*
X121745400Y-97028000D03*
X121745400Y-95758000D03*
X121745400Y-94488000D03*
X121745400Y-93218000D03*
X121745400Y-91948000D03*
X121745400Y-90678000D03*
X121745400Y-89408000D03*
X121745400Y-88138000D03*
X121745400Y-86868000D03*
X121745400Y-85598000D03*
%TD*%
D21*
%TO.C,C7*%
X129095800Y-82372200D03*
X127545800Y-82372200D03*
%TD*%
M02*
