%TF.GenerationSoftware,KiCad,Pcbnew,(6.0.2)*%
%TF.CreationDate,2022-08-12T14:47:40-07:00*%
%TF.ProjectId,Mega68k,4d656761-3638-46b2-9e6b-696361645f70,rev?*%
%TF.SameCoordinates,Original*%
%TF.FileFunction,Legend,Bot*%
%TF.FilePolarity,Positive*%
%FSLAX46Y46*%
G04 Gerber Fmt 4.6, Leading zero omitted, Abs format (unit mm)*
G04 Created by KiCad (PCBNEW (6.0.2)) date 2022-08-12 14:47:40*
%MOMM*%
%LPD*%
G01*
G04 APERTURE LIST*
%ADD10C,0.150000*%
%ADD11C,0.120000*%
G04 APERTURE END LIST*
D10*
%TO.C,U1*%
X129057304Y-83375380D02*
X129057304Y-84184904D01*
X129009685Y-84280142D01*
X128962066Y-84327761D01*
X128866828Y-84375380D01*
X128676352Y-84375380D01*
X128581114Y-84327761D01*
X128533495Y-84280142D01*
X128485876Y-84184904D01*
X128485876Y-83375380D01*
X127485876Y-84375380D02*
X128057304Y-84375380D01*
X127771590Y-84375380D02*
X127771590Y-83375380D01*
X127866828Y-83518238D01*
X127962066Y-83613476D01*
X128057304Y-83661095D01*
X134985876Y-106489666D02*
X134509685Y-106489666D01*
X135081114Y-106775380D02*
X134747780Y-105775380D01*
X134414447Y-106775380D01*
X134128733Y-106727761D02*
X133985876Y-106775380D01*
X133747780Y-106775380D01*
X133652542Y-106727761D01*
X133604923Y-106680142D01*
X133557304Y-106584904D01*
X133557304Y-106489666D01*
X133604923Y-106394428D01*
X133652542Y-106346809D01*
X133747780Y-106299190D01*
X133938257Y-106251571D01*
X134033495Y-106203952D01*
X134081114Y-106156333D01*
X134128733Y-106061095D01*
X134128733Y-105965857D01*
X134081114Y-105870619D01*
X134033495Y-105823000D01*
X133938257Y-105775380D01*
X133700161Y-105775380D01*
X133557304Y-105823000D01*
X132700161Y-105775380D02*
X132890638Y-105775380D01*
X132985876Y-105823000D01*
X133033495Y-105870619D01*
X133128733Y-106013476D01*
X133176352Y-106203952D01*
X133176352Y-106584904D01*
X133128733Y-106680142D01*
X133081114Y-106727761D01*
X132985876Y-106775380D01*
X132795400Y-106775380D01*
X132700161Y-106727761D01*
X132652542Y-106680142D01*
X132604923Y-106584904D01*
X132604923Y-106346809D01*
X132652542Y-106251571D01*
X132700161Y-106203952D01*
X132795400Y-106156333D01*
X132985876Y-106156333D01*
X133081114Y-106203952D01*
X133128733Y-106251571D01*
X133176352Y-106346809D01*
X131604923Y-106680142D02*
X131652542Y-106727761D01*
X131795400Y-106775380D01*
X131890638Y-106775380D01*
X132033495Y-106727761D01*
X132128733Y-106632523D01*
X132176352Y-106537285D01*
X132223971Y-106346809D01*
X132223971Y-106203952D01*
X132176352Y-106013476D01*
X132128733Y-105918238D01*
X132033495Y-105823000D01*
X131890638Y-105775380D01*
X131795400Y-105775380D01*
X131652542Y-105823000D01*
X131604923Y-105870619D01*
X130747780Y-106108714D02*
X130747780Y-106775380D01*
X130985876Y-105727761D02*
X131223971Y-106442047D01*
X130604923Y-106442047D01*
X130033495Y-105775380D02*
X129938257Y-105775380D01*
X129843019Y-105823000D01*
X129795400Y-105870619D01*
X129747780Y-105965857D01*
X129700161Y-106156333D01*
X129700161Y-106394428D01*
X129747780Y-106584904D01*
X129795400Y-106680142D01*
X129843019Y-106727761D01*
X129938257Y-106775380D01*
X130033495Y-106775380D01*
X130128733Y-106727761D01*
X130176352Y-106680142D01*
X130223971Y-106584904D01*
X130271590Y-106394428D01*
X130271590Y-106156333D01*
X130223971Y-105965857D01*
X130176352Y-105870619D01*
X130128733Y-105823000D01*
X130033495Y-105775380D01*
X129081114Y-105775380D02*
X128985876Y-105775380D01*
X128890638Y-105823000D01*
X128843019Y-105870619D01*
X128795400Y-105965857D01*
X128747780Y-106156333D01*
X128747780Y-106394428D01*
X128795400Y-106584904D01*
X128843019Y-106680142D01*
X128890638Y-106727761D01*
X128985876Y-106775380D01*
X129081114Y-106775380D01*
X129176352Y-106727761D01*
X129223971Y-106680142D01*
X129271590Y-106584904D01*
X129319209Y-106394428D01*
X129319209Y-106156333D01*
X129271590Y-105965857D01*
X129223971Y-105870619D01*
X129176352Y-105823000D01*
X129081114Y-105775380D01*
X128176352Y-106203952D02*
X128271590Y-106156333D01*
X128319209Y-106108714D01*
X128366828Y-106013476D01*
X128366828Y-105965857D01*
X128319209Y-105870619D01*
X128271590Y-105823000D01*
X128176352Y-105775380D01*
X127985876Y-105775380D01*
X127890638Y-105823000D01*
X127843019Y-105870619D01*
X127795400Y-105965857D01*
X127795400Y-106013476D01*
X127843019Y-106108714D01*
X127890638Y-106156333D01*
X127985876Y-106203952D01*
X128176352Y-106203952D01*
X128271590Y-106251571D01*
X128319209Y-106299190D01*
X128366828Y-106394428D01*
X128366828Y-106584904D01*
X128319209Y-106680142D01*
X128271590Y-106727761D01*
X128176352Y-106775380D01*
X127985876Y-106775380D01*
X127890638Y-106727761D01*
X127843019Y-106680142D01*
X127795400Y-106584904D01*
X127795400Y-106394428D01*
X127843019Y-106299190D01*
X127890638Y-106251571D01*
X127985876Y-106203952D01*
X127366828Y-106394428D02*
X126604923Y-106394428D01*
X125652542Y-105775380D02*
X126128733Y-105775380D01*
X126176352Y-106251571D01*
X126128733Y-106203952D01*
X126033495Y-106156333D01*
X125795400Y-106156333D01*
X125700161Y-106203952D01*
X125652542Y-106251571D01*
X125604923Y-106346809D01*
X125604923Y-106584904D01*
X125652542Y-106680142D01*
X125700161Y-106727761D01*
X125795400Y-106775380D01*
X126033495Y-106775380D01*
X126128733Y-106727761D01*
X126176352Y-106680142D01*
X124700161Y-105775380D02*
X125176352Y-105775380D01*
X125223971Y-106251571D01*
X125176352Y-106203952D01*
X125081114Y-106156333D01*
X124843019Y-106156333D01*
X124747780Y-106203952D01*
X124700161Y-106251571D01*
X124652542Y-106346809D01*
X124652542Y-106584904D01*
X124700161Y-106680142D01*
X124747780Y-106727761D01*
X124843019Y-106775380D01*
X125081114Y-106775380D01*
X125176352Y-106727761D01*
X125223971Y-106680142D01*
X124223971Y-106775380D02*
X124223971Y-105775380D01*
X123843019Y-105775380D01*
X123747780Y-105823000D01*
X123700161Y-105870619D01*
X123652542Y-105965857D01*
X123652542Y-106108714D01*
X123700161Y-106203952D01*
X123747780Y-106251571D01*
X123843019Y-106299190D01*
X124223971Y-106299190D01*
X122652542Y-106680142D02*
X122700161Y-106727761D01*
X122843019Y-106775380D01*
X122938257Y-106775380D01*
X123081114Y-106727761D01*
X123176352Y-106632523D01*
X123223971Y-106537285D01*
X123271590Y-106346809D01*
X123271590Y-106203952D01*
X123223971Y-106013476D01*
X123176352Y-105918238D01*
X123081114Y-105823000D01*
X122938257Y-105775380D01*
X122843019Y-105775380D01*
X122700161Y-105823000D01*
X122652542Y-105870619D01*
X122223971Y-106775380D02*
X122223971Y-105775380D01*
X121652542Y-106775380D01*
X121652542Y-105775380D01*
%TO.C,C7*%
X128487466Y-81299342D02*
X128535085Y-81346961D01*
X128677942Y-81394580D01*
X128773180Y-81394580D01*
X128916038Y-81346961D01*
X129011276Y-81251723D01*
X129058895Y-81156485D01*
X129106514Y-80966009D01*
X129106514Y-80823152D01*
X129058895Y-80632676D01*
X129011276Y-80537438D01*
X128916038Y-80442200D01*
X128773180Y-80394580D01*
X128677942Y-80394580D01*
X128535085Y-80442200D01*
X128487466Y-80489819D01*
X128154133Y-80394580D02*
X127487466Y-80394580D01*
X127916038Y-81394580D01*
D11*
%TO.C,U1*%
X128295400Y-84765500D02*
X122532900Y-84765500D01*
X134057900Y-105480500D02*
X134057900Y-105208000D01*
X128295400Y-105480500D02*
X122532900Y-105480500D01*
X128295400Y-105480500D02*
X134057900Y-105480500D01*
X128295400Y-84765500D02*
X134057900Y-84765500D01*
X122532900Y-84765500D02*
X122532900Y-85038000D01*
X134057900Y-85038000D02*
X135870400Y-85038000D01*
X134057900Y-84765500D02*
X134057900Y-85038000D01*
X122532900Y-105480500D02*
X122532900Y-105208000D01*
%TO.C,C7*%
X128461380Y-81862200D02*
X128180220Y-81862200D01*
X128461380Y-82882200D02*
X128180220Y-82882200D01*
%TD*%
M02*
