M48
; DRILL file {KiCad (6.0.2)} date Fri Aug 12 14:47:42 2022
; FORMAT={-:-/ absolute / inch / decimal}
; #@! TF.CreationDate,2022-08-12T14:47:42-07:00
; #@! TF.GenerationSoftware,Kicad,Pcbnew,(6.0.2)
; #@! TF.FileFunction,Plated,1,2,PTH
FMAT,2
INCH
; #@! TA.AperFunction,Plated,PTH,ViaDrill
T1C0.0157
; #@! TA.AperFunction,Plated,PTH,ComponentDrill
T2C0.0315
; #@! TA.AperFunction,Plated,PTH,ComponentDrill
T3C0.0394
; #@! TA.AperFunction,Plated,PTH,ComponentDrill
T4C0.0400
; #@! TA.AperFunction,Plated,PTH,ComponentDrill
T5C0.0433
%
G90
G05
T1
X2.1321Y-3.5359
X2.1667Y-3.5979
X2.1702Y-3.3931
X2.1972Y-3.4591
X2.2329Y-3.3638
X2.308Y-3.7601
X2.3163Y-3.8392
X2.3522Y-2.6489
X2.3883Y-2.7318
X2.4088Y-2.7709
X2.4228Y-2.8262
X2.4482Y-2.7446
X2.5961Y-2.9277
X2.6777Y-2.6585
X2.6887Y-2.936
X2.7992Y-2.4418
X2.9852Y-3.0319
X3.0478Y-2.3111
X3.2891Y-3.2004
X3.2975Y-3.8591
X3.4249Y-3.8136
X3.4298Y-3.0034
X3.4315Y-3.9906
X3.5192Y-4.0013
X3.5609Y-3.9792
X3.6159Y-3.9446
X3.673Y-3.9625
X3.7221Y-3.4798
X3.7408Y-3.973
X3.8044Y-2.3103
X3.8118Y-2.2621
X3.8258Y-3.3899
X3.8408Y-3.5527
X3.8865Y-2.8212
X3.9133Y-3.391
X3.9148Y-2.8682
X3.9343Y-2.7289
X4.054Y-3.8494
X4.056Y-3.9597
X4.1265Y-2.89
X4.1298Y-3.9768
X4.245Y-3.7095
X4.2544Y-3.3048
X4.2651Y-4.2389
X4.2758Y-3.5218
X4.2885Y-3.3322
X4.3019Y-4.1496
X4.3116Y-3.4517
X4.3391Y-2.928
X4.3445Y-3.8026
X4.3449Y-3.9786
X4.3544Y-3.7555
X4.3702Y-3.7136
X4.3737Y-3.5592
X4.38Y-2.8986
X4.4152Y-2.8757
X4.4281Y-4.2
X4.4538Y-3.5615
X4.4795Y-3.9786
X4.5356Y-2.8485
X4.5506Y-4.0077
X4.5745Y-3.5981
X4.6058Y-3.5713
X4.6488Y-3.7995
X4.6784Y-2.2099
X4.6882Y-3.7881
X4.7166Y-4.3061
X4.7276Y-3.9827
X4.7426Y-4.4131
X4.8452Y-2.1838
X4.8805Y-4.091
X4.9233Y-3.3738
X4.9289Y-3.3161
X4.9513Y-3.4887
X4.9955Y-3.46
X5.0912Y-3.506
X5.1276Y-3.8218
X5.1743Y-3.4146
X5.1814Y-3.0956
X5.1831Y-4.0347
X5.2004Y-3.3845
X5.2064Y-3.239
X5.221Y-3.1708
X5.2497Y-3.594
X5.254Y-2.6261
X5.3338Y-2.8028
X5.3385Y-3.2822
X5.3735Y-4.0189
X5.3786Y-3.8021
X5.4Y-3.6322
X5.4019Y-3.5406
X5.4029Y-3.589
X5.4094Y-3.689
X5.412Y-3.8371
X5.4324Y-3.4458
X5.4645Y-4.0908
X5.466Y-4.3723
X5.467Y-3.9397
X5.7612Y-3.5172
T2
X2.423Y-3.324
X2.423Y-3.424
X2.423Y-3.524
X2.423Y-3.624
X2.423Y-3.724
X2.423Y-3.824
X2.423Y-3.924
X2.523Y-3.224
X2.523Y-3.324
X2.523Y-3.424
X2.523Y-3.524
X2.523Y-3.624
X2.523Y-3.724
X2.523Y-3.824
X2.523Y-3.924
X2.523Y-4.024
X2.623Y-3.224
X2.623Y-3.324
X2.623Y-3.924
X2.623Y-4.024
X2.723Y-3.224
X2.723Y-3.324
X2.723Y-3.924
X2.723Y-4.024
X2.804Y-2.596
X2.804Y-2.896
X2.823Y-3.224
X2.823Y-3.324
X2.823Y-3.924
X2.823Y-4.024
X2.923Y-3.224
X2.923Y-3.324
X2.923Y-3.924
X2.923Y-4.024
X3.023Y-3.224
X3.023Y-3.324
X3.023Y-3.924
X3.023Y-4.024
X3.104Y-2.596
X3.104Y-2.896
X3.123Y-3.224
X3.123Y-3.324
X3.123Y-3.424
X3.123Y-3.524
X3.123Y-3.624
X3.123Y-3.724
X3.123Y-3.824
X3.123Y-3.924
X3.123Y-4.024
X3.223Y-3.324
X3.223Y-3.424
X3.223Y-3.524
X3.223Y-3.624
X3.223Y-3.724
X3.223Y-3.824
X3.223Y-3.924
X3.3863Y-2.619
X3.503Y-3.15
X3.503Y-3.25
X3.503Y-3.35
X3.503Y-3.45
X3.503Y-3.55
X3.503Y-3.65
X3.5785Y-2.619
X3.603Y-3.05
X3.603Y-3.15
X3.603Y-3.25
X3.603Y-3.35
X3.603Y-3.45
X3.603Y-3.55
X3.603Y-3.65
X3.603Y-3.75
X3.703Y-3.05
X3.703Y-3.15
X3.703Y-3.65
X3.703Y-3.75
X3.803Y-3.05
X3.803Y-3.15
X3.803Y-3.65
X3.803Y-3.75
X3.903Y-3.05
X3.903Y-3.15
X3.903Y-3.65
X3.903Y-3.75
X4.003Y-3.05
X4.003Y-3.15
X4.003Y-3.65
X4.003Y-3.75
X4.103Y-3.05
X4.103Y-3.15
X4.103Y-3.25
X4.103Y-3.35
X4.103Y-3.45
X4.103Y-3.55
X4.103Y-3.65
X4.103Y-3.75
X4.203Y-3.15
X4.203Y-3.25
X4.203Y-3.35
X4.203Y-3.45
X4.203Y-3.55
X4.203Y-3.65
T3
X2.3284Y-1.9942
X2.3284Y-2.0942
X2.4284Y-1.9942
X2.4284Y-2.0942
X2.5284Y-1.9942
X2.5284Y-2.0942
X2.6284Y-1.9942
X2.6284Y-2.0942
X2.7284Y-1.9942
X2.7284Y-2.0942
X2.8284Y-1.9942
X2.8284Y-2.0942
X2.9284Y-1.9942
X2.9284Y-2.0942
X3.0284Y-1.9942
X3.0284Y-2.0942
X3.1284Y-1.9942
X3.1284Y-2.0942
X3.2284Y-1.9942
X3.2284Y-2.0942
X3.3284Y-1.9942
X3.3284Y-2.0942
X3.4284Y-1.9942
X3.4284Y-2.0942
X3.5284Y-1.9942
X3.5284Y-2.0942
X3.6284Y-1.9942
X3.6284Y-2.0942
X3.7284Y-1.9942
X3.7284Y-2.0942
X3.8284Y-1.9942
X3.8284Y-2.0942
X3.897Y-2.568
X3.9284Y-1.9942
X3.9284Y-2.0942
X3.997Y-2.568
X4.0284Y-1.9942
X4.0284Y-2.0942
X4.097Y-2.568
X4.1284Y-1.9942
X4.1284Y-2.0942
X4.197Y-2.568
X4.2284Y-1.9942
X4.2284Y-2.0942
X4.297Y-2.568
X4.3284Y-1.9942
X4.3284Y-2.0942
X4.397Y-2.568
X4.4284Y-1.9942
X4.4284Y-2.0942
X4.5284Y-1.9942
X4.5284Y-2.0942
X4.6284Y-1.9942
X4.6284Y-2.0942
X4.697Y-3.019
X4.7284Y-1.9942
X4.7284Y-2.0942
X4.797Y-3.019
X4.8284Y-1.9942
X4.8284Y-2.0942
X4.897Y-3.019
X4.9284Y-1.9942
X4.9284Y-2.0942
X4.997Y-3.019
X5.0284Y-1.9942
X5.0284Y-2.0942
X5.097Y-3.019
X5.1284Y-1.9942
X5.1284Y-2.0942
X5.197Y-3.019
X5.2284Y-1.9942
X5.2284Y-2.0942
X5.297Y-3.019
X5.3284Y-1.9942
X5.3284Y-2.0942
X5.397Y-3.019
X5.4284Y-1.9942
X5.4284Y-2.0942
X5.5284Y-1.9942
X5.5284Y-2.0942
X5.6284Y-1.9942
X5.6284Y-2.0942
T4
X2.638Y-2.389
X2.738Y-2.389
X2.838Y-2.389
X2.938Y-2.389
X2.998Y-4.289
X3.038Y-2.389
X3.098Y-4.289
X3.138Y-2.389
X3.198Y-4.289
X3.238Y-2.389
X3.298Y-4.289
X3.338Y-2.389
X3.398Y-4.289
X3.438Y-2.389
X3.498Y-4.289
X3.538Y-2.389
X3.598Y-4.289
X3.698Y-2.389
X3.698Y-4.289
X3.798Y-2.389
X3.898Y-2.389
X3.898Y-4.289
X3.998Y-2.389
X3.998Y-4.289
X4.098Y-2.389
X4.098Y-4.289
X4.198Y-2.389
X4.198Y-4.289
X4.298Y-2.389
X4.298Y-4.289
X4.398Y-2.389
X4.398Y-4.289
X4.403Y-3.189
X4.403Y-3.289
X4.403Y-3.389
X4.498Y-4.289
X4.503Y-3.189
X4.503Y-3.289
X4.503Y-3.389
X4.598Y-2.389
X4.598Y-4.289
X4.698Y-2.389
X4.798Y-2.389
X4.798Y-4.289
X4.898Y-2.389
X4.898Y-4.289
X4.998Y-2.389
X4.998Y-4.289
X5.098Y-2.389
X5.098Y-4.289
X5.198Y-2.389
X5.198Y-4.289
X5.298Y-2.389
X5.298Y-4.289
X5.398Y-4.289
X5.498Y-4.289
X5.598Y-2.389
X5.598Y-2.489
X5.598Y-2.589
X5.598Y-2.689
X5.598Y-2.789
X5.598Y-2.889
X5.598Y-2.989
X5.598Y-3.089
X5.598Y-3.189
X5.598Y-3.289
X5.598Y-3.389
X5.598Y-3.489
X5.598Y-3.589
X5.598Y-3.689
X5.598Y-3.789
X5.598Y-3.889
X5.598Y-3.989
X5.598Y-4.089
X5.698Y-2.389
X5.698Y-2.489
X5.698Y-2.589
X5.698Y-2.689
X5.698Y-2.789
X5.698Y-2.889
X5.698Y-2.989
X5.698Y-3.089
X5.698Y-3.189
X5.698Y-3.289
X5.698Y-3.389
X5.698Y-3.489
X5.698Y-3.589
X5.698Y-3.689
X5.698Y-3.789
X5.698Y-3.889
X5.698Y-3.989
X5.698Y-4.089
T5
X4.608Y-2.5734
X4.608Y-2.7506
X4.864Y-2.5734
X4.864Y-2.7506
X5.167Y-2.5734
X5.167Y-2.7506
X5.4229Y-2.5734
X5.4229Y-2.7506
T0
M30
