%TF.GenerationSoftware,KiCad,Pcbnew,(6.0.2)*%
%TF.CreationDate,2022-07-18T22:22:09-07:00*%
%TF.ProjectId,Mega68k,4d656761-3638-46b2-9e6b-696361645f70,rev?*%
%TF.SameCoordinates,Original*%
%TF.FileFunction,Soldermask,Bot*%
%TF.FilePolarity,Negative*%
%FSLAX46Y46*%
G04 Gerber Fmt 4.6, Leading zero omitted, Abs format (unit mm)*
G04 Created by KiCad (PCBNEW (6.0.2)) date 2022-07-18 22:22:09*
%MOMM*%
%LPD*%
G01*
G04 APERTURE LIST*
G04 Aperture macros list*
%AMRoundRect*
0 Rectangle with rounded corners*
0 $1 Rounding radius*
0 $2 $3 $4 $5 $6 $7 $8 $9 X,Y pos of 4 corners*
0 Add a 4 corners polygon primitive as box body*
4,1,4,$2,$3,$4,$5,$6,$7,$8,$9,$2,$3,0*
0 Add four circle primitives for the rounded corners*
1,1,$1+$1,$2,$3*
1,1,$1+$1,$4,$5*
1,1,$1+$1,$6,$7*
1,1,$1+$1,$8,$9*
0 Add four rect primitives between the rounded corners*
20,1,$1+$1,$2,$3,$4,$5,0*
20,1,$1+$1,$4,$5,$6,$7,0*
20,1,$1+$1,$6,$7,$8,$9,0*
20,1,$1+$1,$8,$9,$2,$3,0*%
G04 Aperture macros list end*
%ADD10R,1.700000X1.700000*%
%ADD11O,1.700000X1.700000*%
%ADD12O,1.727200X1.727200*%
%ADD13C,3.200000*%
%ADD14RoundRect,0.150000X-0.150000X0.875000X-0.150000X-0.875000X0.150000X-0.875000X0.150000X0.875000X0*%
%ADD15RoundRect,0.225000X0.250000X-0.225000X0.250000X0.225000X-0.250000X0.225000X-0.250000X-0.225000X0*%
%ADD16R,1.600000X1.600000*%
%ADD17C,1.600000*%
%ADD18RoundRect,0.225000X-0.225000X-0.250000X0.225000X-0.250000X0.225000X0.250000X-0.225000X0.250000X0*%
%ADD19O,1.600000X2.400000*%
%ADD20R,1.600000X2.400000*%
G04 APERTURE END LIST*
D10*
%TO.C,J3*%
X52806600Y-83972400D03*
D11*
X52806600Y-86512400D03*
X52806600Y-89052400D03*
X52806600Y-91592400D03*
X52806600Y-94132400D03*
X52806600Y-96672400D03*
%TD*%
D12*
%TO.C,XA1*%
X111836200Y-86080600D03*
X114376200Y-86080600D03*
X114376200Y-83540600D03*
X111836200Y-83540600D03*
X114376200Y-81000600D03*
X99009200Y-108940600D03*
X93929200Y-108940600D03*
X91389200Y-108940600D03*
X88849200Y-108940600D03*
X86309200Y-108940600D03*
X83769200Y-108940600D03*
X81229200Y-108940600D03*
X78689200Y-108940600D03*
X134569200Y-60680600D03*
X132029200Y-60680600D03*
X129489200Y-60680600D03*
X126949200Y-60680600D03*
X124409200Y-60680600D03*
X121869200Y-60680600D03*
X119329200Y-60680600D03*
X116789200Y-60680600D03*
X111709200Y-60680600D03*
X109169200Y-60680600D03*
X106629200Y-60680600D03*
X104089200Y-60680600D03*
X101549200Y-60680600D03*
X99009200Y-60680600D03*
X96469200Y-60680600D03*
X93929200Y-60680600D03*
X74625200Y-60680600D03*
X89865200Y-60680600D03*
X87325200Y-60680600D03*
X84785200Y-60680600D03*
D13*
X114249200Y-103860600D03*
X114249200Y-75920600D03*
X138379200Y-60680600D03*
X63449200Y-60680600D03*
X144729200Y-108940600D03*
X62179200Y-108940600D03*
D12*
X67005200Y-60680600D03*
X69545200Y-60680600D03*
X72085200Y-60680600D03*
X77165200Y-60680600D03*
X79705200Y-60680600D03*
X82245200Y-60680600D03*
X76149200Y-108940600D03*
X101549200Y-108940600D03*
X104089200Y-108940600D03*
X106629200Y-108940600D03*
X109169200Y-108940600D03*
X111709200Y-108940600D03*
X114249200Y-108940600D03*
X116789200Y-108940600D03*
X121869200Y-108940600D03*
X124409200Y-108940600D03*
X126949200Y-108940600D03*
X129489200Y-108940600D03*
X132029200Y-108940600D03*
X134569200Y-108940600D03*
X137109200Y-108940600D03*
X139649200Y-108940600D03*
X142189200Y-60680600D03*
X144729200Y-60680600D03*
X142189200Y-63220600D03*
X144729200Y-63220600D03*
X142189200Y-65760600D03*
X144729200Y-65760600D03*
X142189200Y-68300600D03*
X144729200Y-68300600D03*
X142189200Y-70840600D03*
X144729200Y-70840600D03*
X142189200Y-73380600D03*
X144729200Y-73380600D03*
X142189200Y-75920600D03*
X144729200Y-75920600D03*
X142189200Y-78460600D03*
X144729200Y-78460600D03*
X142189200Y-81000600D03*
X144729200Y-81000600D03*
X142189200Y-83540600D03*
X144729200Y-83540600D03*
X142189200Y-86080600D03*
X144729200Y-86080600D03*
X142189200Y-88620600D03*
X144729200Y-88620600D03*
X142189200Y-91160600D03*
X144729200Y-91160600D03*
X142189200Y-93700600D03*
X144729200Y-93700600D03*
X142189200Y-96240600D03*
X144729200Y-96240600D03*
X142189200Y-98780600D03*
X144729200Y-98780600D03*
X142189200Y-101320600D03*
X144729200Y-101320600D03*
X142189200Y-103860600D03*
X144729200Y-103860600D03*
X111836200Y-81000600D03*
%TD*%
D14*
%TO.C,U3*%
X87858600Y-71453400D03*
X89128600Y-71453400D03*
X90398600Y-71453400D03*
X91668600Y-71453400D03*
X92938600Y-71453400D03*
X94208600Y-71453400D03*
X95478600Y-71453400D03*
X96748600Y-71453400D03*
X98018600Y-71453400D03*
X99288600Y-71453400D03*
X100558600Y-71453400D03*
X101828600Y-71453400D03*
X103098600Y-71453400D03*
X104368600Y-71453400D03*
X105638600Y-71453400D03*
X106908600Y-71453400D03*
X106908600Y-84553400D03*
X105638600Y-84553400D03*
X104368600Y-84553400D03*
X103098600Y-84553400D03*
X101828600Y-84553400D03*
X100558600Y-84553400D03*
X99288600Y-84553400D03*
X98018600Y-84553400D03*
X96748600Y-84553400D03*
X95478600Y-84553400D03*
X94208600Y-84553400D03*
X92938600Y-84553400D03*
X91668600Y-84553400D03*
X90398600Y-84553400D03*
X89128600Y-84553400D03*
X87858600Y-84553400D03*
%TD*%
D15*
%TO.C,C5*%
X84683600Y-78778400D03*
X84683600Y-77228400D03*
%TD*%
D10*
%TO.C,J2*%
X77053200Y-104444800D03*
D11*
X79593200Y-104444800D03*
%TD*%
D16*
%TO.C,X1*%
X63017400Y-103804200D03*
D17*
X70637400Y-103804200D03*
X70637400Y-96184200D03*
X63017400Y-96184200D03*
%TD*%
D18*
%TO.C,C2*%
X89776000Y-68529200D03*
X91326000Y-68529200D03*
%TD*%
D10*
%TO.C,J1*%
X77053200Y-98780600D03*
D11*
X79593200Y-98780600D03*
X82133200Y-98780600D03*
%TD*%
D19*
%TO.C,U1*%
X57983200Y-65328800D03*
X60523200Y-65328800D03*
X63063200Y-65328800D03*
X65603200Y-65328800D03*
X68143200Y-65328800D03*
X70683200Y-65328800D03*
X73223200Y-65328800D03*
X75763200Y-65328800D03*
X78303200Y-65328800D03*
X80843200Y-65328800D03*
X83383200Y-65328800D03*
X85923200Y-65328800D03*
X88463200Y-65328800D03*
X91003200Y-65328800D03*
X93543200Y-65328800D03*
X96083200Y-65328800D03*
X98623200Y-65328800D03*
X101163200Y-65328800D03*
X103703200Y-65328800D03*
X106243200Y-65328800D03*
X108783200Y-65328800D03*
X111323200Y-65328800D03*
X113863200Y-65328800D03*
X116403200Y-65328800D03*
X118943200Y-65328800D03*
X121483200Y-65328800D03*
X124023200Y-65328800D03*
X126563200Y-65328800D03*
X129103200Y-65328800D03*
X131643200Y-65328800D03*
X134183200Y-65328800D03*
X136723200Y-65328800D03*
X136723200Y-90728800D03*
X134183200Y-90728800D03*
X131643200Y-90728800D03*
X129103200Y-90728800D03*
X126563200Y-90728800D03*
X124023200Y-90728800D03*
X121483200Y-90728800D03*
X118943200Y-90728800D03*
X116403200Y-90728800D03*
X113863200Y-90728800D03*
X111323200Y-90728800D03*
X108783200Y-90728800D03*
X106243200Y-90728800D03*
X103703200Y-90728800D03*
X101163200Y-90728800D03*
X98623200Y-90728800D03*
X96083200Y-90728800D03*
X93543200Y-90728800D03*
X91003200Y-90728800D03*
X88463200Y-90728800D03*
X85923200Y-90728800D03*
X83383200Y-90728800D03*
X80843200Y-90728800D03*
X78303200Y-90728800D03*
X75763200Y-90728800D03*
X73223200Y-90728800D03*
X70683200Y-90728800D03*
X68143200Y-90728800D03*
X65603200Y-90728800D03*
X63063200Y-90728800D03*
X60523200Y-90728800D03*
D20*
X57983200Y-90728800D03*
%TD*%
D14*
%TO.C,U2*%
X61163200Y-71428000D03*
X62433200Y-71428000D03*
X63703200Y-71428000D03*
X64973200Y-71428000D03*
X66243200Y-71428000D03*
X67513200Y-71428000D03*
X68783200Y-71428000D03*
X70053200Y-71428000D03*
X71323200Y-71428000D03*
X72593200Y-71428000D03*
X73863200Y-71428000D03*
X75133200Y-71428000D03*
X76403200Y-71428000D03*
X77673200Y-71428000D03*
X78943200Y-71428000D03*
X80213200Y-71428000D03*
X80213200Y-84528000D03*
X78943200Y-84528000D03*
X77673200Y-84528000D03*
X76403200Y-84528000D03*
X75133200Y-84528000D03*
X73863200Y-84528000D03*
X72593200Y-84528000D03*
X71323200Y-84528000D03*
X70053200Y-84528000D03*
X68783200Y-84528000D03*
X67513200Y-84528000D03*
X66243200Y-84528000D03*
X64973200Y-84528000D03*
X63703200Y-84528000D03*
X62433200Y-84528000D03*
X61163200Y-84528000D03*
%TD*%
D15*
%TO.C,C4*%
X57734200Y-78803800D03*
X57734200Y-77253800D03*
%TD*%
M02*
