%TF.GenerationSoftware,KiCad,Pcbnew,(6.0.2)*%
%TF.CreationDate,2022-07-18T22:22:09-07:00*%
%TF.ProjectId,Mega68k,4d656761-3638-46b2-9e6b-696361645f70,rev?*%
%TF.SameCoordinates,Original*%
%TF.FileFunction,Legend,Top*%
%TF.FilePolarity,Positive*%
%FSLAX46Y46*%
G04 Gerber Fmt 4.6, Leading zero omitted, Abs format (unit mm)*
G04 Created by KiCad (PCBNEW (6.0.2)) date 2022-07-18 22:22:09*
%MOMM*%
%LPD*%
G01*
G04 APERTURE LIST*
%ADD10C,0.300000*%
%ADD11C,0.200000*%
%ADD12C,0.750000*%
%ADD13C,0.150000*%
%ADD14C,0.120000*%
G04 APERTURE END LIST*
D10*
X51964400Y-78249171D02*
X51964400Y-77534885D01*
X52392971Y-78392028D02*
X50892971Y-77892028D01*
X52392971Y-77392028D01*
X52392971Y-76892028D02*
X51392971Y-76892028D01*
X51678685Y-76892028D02*
X51535828Y-76820600D01*
X51464400Y-76749171D01*
X51392971Y-76606314D01*
X51392971Y-76463457D01*
X52392971Y-75320600D02*
X50892971Y-75320600D01*
X52321542Y-75320600D02*
X52392971Y-75463457D01*
X52392971Y-75749171D01*
X52321542Y-75892028D01*
X52250114Y-75963457D01*
X52107257Y-76034885D01*
X51678685Y-76034885D01*
X51535828Y-75963457D01*
X51464400Y-75892028D01*
X51392971Y-75749171D01*
X51392971Y-75463457D01*
X51464400Y-75320600D01*
X51392971Y-73963457D02*
X52392971Y-73963457D01*
X51392971Y-74606314D02*
X52178685Y-74606314D01*
X52321542Y-74534885D01*
X52392971Y-74392028D01*
X52392971Y-74177742D01*
X52321542Y-74034885D01*
X52250114Y-73963457D01*
X52392971Y-73249171D02*
X51392971Y-73249171D01*
X50892971Y-73249171D02*
X50964400Y-73320600D01*
X51035828Y-73249171D01*
X50964400Y-73177742D01*
X50892971Y-73249171D01*
X51035828Y-73249171D01*
X51392971Y-72534885D02*
X52392971Y-72534885D01*
X51535828Y-72534885D02*
X51464400Y-72463457D01*
X51392971Y-72320600D01*
X51392971Y-72106314D01*
X51464400Y-71963457D01*
X51607257Y-71892028D01*
X52392971Y-71892028D01*
X52392971Y-70963457D02*
X52321542Y-71106314D01*
X52250114Y-71177742D01*
X52107257Y-71249171D01*
X51678685Y-71249171D01*
X51535828Y-71177742D01*
X51464400Y-71106314D01*
X51392971Y-70963457D01*
X51392971Y-70749171D01*
X51464400Y-70606314D01*
X51535828Y-70534885D01*
X51678685Y-70463457D01*
X52107257Y-70463457D01*
X52250114Y-70534885D01*
X52321542Y-70606314D01*
X52392971Y-70749171D01*
X52392971Y-70963457D01*
X51964400Y-68749171D02*
X51964400Y-68034885D01*
X52392971Y-68892028D02*
X50892971Y-68392028D01*
X52392971Y-67892028D01*
X52321542Y-67463457D02*
X52392971Y-67320600D01*
X52392971Y-67034885D01*
X52321542Y-66892028D01*
X52178685Y-66820600D01*
X52107257Y-66820600D01*
X51964400Y-66892028D01*
X51892971Y-67034885D01*
X51892971Y-67249171D01*
X51821542Y-67392028D01*
X51678685Y-67463457D01*
X51607257Y-67463457D01*
X51464400Y-67392028D01*
X51392971Y-67249171D01*
X51392971Y-67034885D01*
X51464400Y-66892028D01*
X52392971Y-64177742D02*
X51678685Y-64677742D01*
X52392971Y-65034885D02*
X50892971Y-65034885D01*
X50892971Y-64463457D01*
X50964400Y-64320600D01*
X51035828Y-64249171D01*
X51178685Y-64177742D01*
X51392971Y-64177742D01*
X51535828Y-64249171D01*
X51607257Y-64320600D01*
X51678685Y-64463457D01*
X51678685Y-65034885D01*
X50892971Y-63249171D02*
X50892971Y-62963457D01*
X50964400Y-62820600D01*
X51107257Y-62677742D01*
X51392971Y-62606314D01*
X51892971Y-62606314D01*
X52178685Y-62677742D01*
X52321542Y-62820600D01*
X52392971Y-62963457D01*
X52392971Y-63249171D01*
X52321542Y-63392028D01*
X52178685Y-63534885D01*
X51892971Y-63606314D01*
X51392971Y-63606314D01*
X51107257Y-63534885D01*
X50964400Y-63392028D01*
X50892971Y-63249171D01*
X52392971Y-61963457D02*
X50892971Y-61963457D01*
X51964400Y-61463457D01*
X50892971Y-60963457D01*
X52392971Y-60963457D01*
D11*
X147994714Y-94192219D02*
X148661380Y-93954123D01*
X147994714Y-93716028D01*
X147756619Y-93382695D02*
X147709000Y-93335076D01*
X147661380Y-93239838D01*
X147661380Y-93001742D01*
X147709000Y-92906504D01*
X147756619Y-92858885D01*
X147851857Y-92811266D01*
X147947095Y-92811266D01*
X148089952Y-92858885D01*
X148661380Y-93430314D01*
X148661380Y-92811266D01*
X147661380Y-92192219D02*
X147661380Y-92096980D01*
X147709000Y-92001742D01*
X147756619Y-91954123D01*
X147851857Y-91906504D01*
X148042333Y-91858885D01*
X148280428Y-91858885D01*
X148470904Y-91906504D01*
X148566142Y-91954123D01*
X148613761Y-92001742D01*
X148661380Y-92096980D01*
X148661380Y-92192219D01*
X148613761Y-92287457D01*
X148566142Y-92335076D01*
X148470904Y-92382695D01*
X148280428Y-92430314D01*
X148042333Y-92430314D01*
X147851857Y-92382695D01*
X147756619Y-92335076D01*
X147709000Y-92287457D01*
X147661380Y-92192219D01*
X147756619Y-91477933D02*
X147709000Y-91430314D01*
X147661380Y-91335076D01*
X147661380Y-91096980D01*
X147709000Y-91001742D01*
X147756619Y-90954123D01*
X147851857Y-90906504D01*
X147947095Y-90906504D01*
X148089952Y-90954123D01*
X148661380Y-91525552D01*
X148661380Y-90906504D01*
X147756619Y-90525552D02*
X147709000Y-90477933D01*
X147661380Y-90382695D01*
X147661380Y-90144600D01*
X147709000Y-90049361D01*
X147756619Y-90001742D01*
X147851857Y-89954123D01*
X147947095Y-89954123D01*
X148089952Y-90001742D01*
X148661380Y-90573171D01*
X148661380Y-89954123D01*
X147661380Y-89335076D02*
X147661380Y-89239838D01*
X147709000Y-89144600D01*
X147756619Y-89096980D01*
X147851857Y-89049361D01*
X148042333Y-89001742D01*
X148280428Y-89001742D01*
X148470904Y-89049361D01*
X148566142Y-89096980D01*
X148613761Y-89144600D01*
X148661380Y-89239838D01*
X148661380Y-89335076D01*
X148613761Y-89430314D01*
X148566142Y-89477933D01*
X148470904Y-89525552D01*
X148280428Y-89573171D01*
X148042333Y-89573171D01*
X147851857Y-89525552D01*
X147756619Y-89477933D01*
X147709000Y-89430314D01*
X147661380Y-89335076D01*
X147661380Y-88668409D02*
X147661380Y-88001742D01*
X148661380Y-88430314D01*
X148661380Y-87096980D02*
X148661380Y-87668409D01*
X148661380Y-87382695D02*
X147661380Y-87382695D01*
X147804238Y-87477933D01*
X147899476Y-87573171D01*
X147947095Y-87668409D01*
X148089952Y-86525552D02*
X148042333Y-86620790D01*
X147994714Y-86668409D01*
X147899476Y-86716028D01*
X147851857Y-86716028D01*
X147756619Y-86668409D01*
X147709000Y-86620790D01*
X147661380Y-86525552D01*
X147661380Y-86335076D01*
X147709000Y-86239838D01*
X147756619Y-86192219D01*
X147851857Y-86144600D01*
X147899476Y-86144600D01*
X147994714Y-86192219D01*
X148042333Y-86239838D01*
X148089952Y-86335076D01*
X148089952Y-86525552D01*
X148137571Y-86620790D01*
X148185190Y-86668409D01*
X148280428Y-86716028D01*
X148470904Y-86716028D01*
X148566142Y-86668409D01*
X148613761Y-86620790D01*
X148661380Y-86525552D01*
X148661380Y-86335076D01*
X148613761Y-86239838D01*
X148566142Y-86192219D01*
X148470904Y-86144600D01*
X148280428Y-86144600D01*
X148185190Y-86192219D01*
X148137571Y-86239838D01*
X148089952Y-86335076D01*
D12*
X105049752Y-99980523D02*
X105049752Y-95980523D01*
X106383085Y-98837666D01*
X107716419Y-95980523D01*
X107716419Y-99980523D01*
X111144990Y-99790047D02*
X110764038Y-99980523D01*
X110002133Y-99980523D01*
X109621180Y-99790047D01*
X109430704Y-99409095D01*
X109430704Y-97885285D01*
X109621180Y-97504333D01*
X110002133Y-97313857D01*
X110764038Y-97313857D01*
X111144990Y-97504333D01*
X111335466Y-97885285D01*
X111335466Y-98266238D01*
X109430704Y-98647190D01*
X114764038Y-97313857D02*
X114764038Y-100551952D01*
X114573561Y-100932904D01*
X114383085Y-101123380D01*
X114002133Y-101313857D01*
X113430704Y-101313857D01*
X113049752Y-101123380D01*
X114764038Y-99790047D02*
X114383085Y-99980523D01*
X113621180Y-99980523D01*
X113240228Y-99790047D01*
X113049752Y-99599571D01*
X112859276Y-99218619D01*
X112859276Y-98075761D01*
X113049752Y-97694809D01*
X113240228Y-97504333D01*
X113621180Y-97313857D01*
X114383085Y-97313857D01*
X114764038Y-97504333D01*
X118383085Y-99980523D02*
X118383085Y-97885285D01*
X118192609Y-97504333D01*
X117811657Y-97313857D01*
X117049752Y-97313857D01*
X116668800Y-97504333D01*
X118383085Y-99790047D02*
X118002133Y-99980523D01*
X117049752Y-99980523D01*
X116668800Y-99790047D01*
X116478323Y-99409095D01*
X116478323Y-99028142D01*
X116668800Y-98647190D01*
X117049752Y-98456714D01*
X118002133Y-98456714D01*
X118383085Y-98266238D01*
X125049752Y-95980523D02*
X124287847Y-95980523D01*
X123906895Y-96171000D01*
X123716419Y-96361476D01*
X123335466Y-96932904D01*
X123144990Y-97694809D01*
X123144990Y-99218619D01*
X123335466Y-99599571D01*
X123525942Y-99790047D01*
X123906895Y-99980523D01*
X124668800Y-99980523D01*
X125049752Y-99790047D01*
X125240228Y-99599571D01*
X125430704Y-99218619D01*
X125430704Y-98266238D01*
X125240228Y-97885285D01*
X125049752Y-97694809D01*
X124668800Y-97504333D01*
X123906895Y-97504333D01*
X123525942Y-97694809D01*
X123335466Y-97885285D01*
X123144990Y-98266238D01*
X127716419Y-97694809D02*
X127335466Y-97504333D01*
X127144990Y-97313857D01*
X126954514Y-96932904D01*
X126954514Y-96742428D01*
X127144990Y-96361476D01*
X127335466Y-96171000D01*
X127716419Y-95980523D01*
X128478323Y-95980523D01*
X128859276Y-96171000D01*
X129049752Y-96361476D01*
X129240228Y-96742428D01*
X129240228Y-96932904D01*
X129049752Y-97313857D01*
X128859276Y-97504333D01*
X128478323Y-97694809D01*
X127716419Y-97694809D01*
X127335466Y-97885285D01*
X127144990Y-98075761D01*
X126954514Y-98456714D01*
X126954514Y-99218619D01*
X127144990Y-99599571D01*
X127335466Y-99790047D01*
X127716419Y-99980523D01*
X128478323Y-99980523D01*
X128859276Y-99790047D01*
X129049752Y-99599571D01*
X129240228Y-99218619D01*
X129240228Y-98456714D01*
X129049752Y-98075761D01*
X128859276Y-97885285D01*
X128478323Y-97694809D01*
X130954514Y-99980523D02*
X130954514Y-95980523D01*
X131335466Y-98456714D02*
X132478323Y-99980523D01*
X132478323Y-97313857D02*
X130954514Y-98837666D01*
D13*
%TO.C,J3*%
X52473266Y-80654780D02*
X52473266Y-81369066D01*
X52425647Y-81511923D01*
X52330409Y-81607161D01*
X52187552Y-81654780D01*
X52092314Y-81654780D01*
X52854219Y-80654780D02*
X53473266Y-80654780D01*
X53139933Y-81035733D01*
X53282790Y-81035733D01*
X53378028Y-81083352D01*
X53425647Y-81130971D01*
X53473266Y-81226209D01*
X53473266Y-81464304D01*
X53425647Y-81559542D01*
X53378028Y-81607161D01*
X53282790Y-81654780D01*
X52997076Y-81654780D01*
X52901838Y-81607161D01*
X52854219Y-81559542D01*
X51782790Y-99847161D02*
X51925647Y-99894780D01*
X52163742Y-99894780D01*
X52258980Y-99847161D01*
X52306600Y-99799542D01*
X52354219Y-99704304D01*
X52354219Y-99609066D01*
X52306600Y-99513828D01*
X52258980Y-99466209D01*
X52163742Y-99418590D01*
X51973266Y-99370971D01*
X51878028Y-99323352D01*
X51830409Y-99275733D01*
X51782790Y-99180495D01*
X51782790Y-99085257D01*
X51830409Y-98990019D01*
X51878028Y-98942400D01*
X51973266Y-98894780D01*
X52211361Y-98894780D01*
X52354219Y-98942400D01*
X52782790Y-99894780D02*
X52782790Y-98894780D01*
X53163742Y-98894780D01*
X53258980Y-98942400D01*
X53306600Y-98990019D01*
X53354219Y-99085257D01*
X53354219Y-99228114D01*
X53306600Y-99323352D01*
X53258980Y-99370971D01*
X53163742Y-99418590D01*
X52782790Y-99418590D01*
X53782790Y-99894780D02*
X53782790Y-98894780D01*
%TO.C,XA1*%
X49511104Y-56576980D02*
X50177771Y-57576980D01*
X50177771Y-56576980D02*
X49511104Y-57576980D01*
X50511104Y-57291266D02*
X50987295Y-57291266D01*
X50415866Y-57576980D02*
X50749200Y-56576980D01*
X51082533Y-57576980D01*
X51939676Y-57576980D02*
X51368247Y-57576980D01*
X51653961Y-57576980D02*
X51653961Y-56576980D01*
X51558723Y-56719838D01*
X51463485Y-56815076D01*
X51368247Y-56862695D01*
X110693200Y-79833742D02*
X110740819Y-79881361D01*
X110693200Y-79928980D01*
X110645580Y-79881361D01*
X110693200Y-79833742D01*
X110693200Y-79928980D01*
%TO.C,C1*%
X88733333Y-99519142D02*
X88685714Y-99566761D01*
X88542857Y-99614380D01*
X88447619Y-99614380D01*
X88304761Y-99566761D01*
X88209523Y-99471523D01*
X88161904Y-99376285D01*
X88114285Y-99185809D01*
X88114285Y-99042952D01*
X88161904Y-98852476D01*
X88209523Y-98757238D01*
X88304761Y-98662000D01*
X88447619Y-98614380D01*
X88542857Y-98614380D01*
X88685714Y-98662000D01*
X88733333Y-98709619D01*
X89685714Y-99614380D02*
X89114285Y-99614380D01*
X89400000Y-99614380D02*
X89400000Y-98614380D01*
X89304761Y-98757238D01*
X89209523Y-98852476D01*
X89114285Y-98900095D01*
%TO.C,J2*%
X74175580Y-104778133D02*
X74889866Y-104778133D01*
X75032723Y-104825752D01*
X75127961Y-104920990D01*
X75175580Y-105063847D01*
X75175580Y-105159085D01*
X74270819Y-104349561D02*
X74223200Y-104301942D01*
X74175580Y-104206704D01*
X74175580Y-103968609D01*
X74223200Y-103873371D01*
X74270819Y-103825752D01*
X74366057Y-103778133D01*
X74461295Y-103778133D01*
X74604152Y-103825752D01*
X75175580Y-104397180D01*
X75175580Y-103778133D01*
X75637723Y-101579371D02*
X75971057Y-101579371D01*
X76113914Y-102103180D02*
X75637723Y-102103180D01*
X75637723Y-101103180D01*
X76113914Y-101103180D01*
X76447247Y-102103180D02*
X76971057Y-101436514D01*
X76447247Y-101436514D02*
X76971057Y-102103180D01*
X77209152Y-101436514D02*
X77590104Y-101436514D01*
X77352009Y-101103180D02*
X77352009Y-101960323D01*
X77399628Y-102055561D01*
X77494866Y-102103180D01*
X77590104Y-102103180D01*
X79256771Y-102007942D02*
X79209152Y-102055561D01*
X79066295Y-102103180D01*
X78971057Y-102103180D01*
X78828200Y-102055561D01*
X78732961Y-101960323D01*
X78685342Y-101865085D01*
X78637723Y-101674609D01*
X78637723Y-101531752D01*
X78685342Y-101341276D01*
X78732961Y-101246038D01*
X78828200Y-101150800D01*
X78971057Y-101103180D01*
X79066295Y-101103180D01*
X79209152Y-101150800D01*
X79256771Y-101198419D01*
X80161533Y-102103180D02*
X79685342Y-102103180D01*
X79685342Y-101103180D01*
X80494866Y-102103180D02*
X80494866Y-101103180D01*
X81066295Y-102103180D02*
X80637723Y-101531752D01*
X81066295Y-101103180D02*
X80494866Y-101674609D01*
%TO.C,X1*%
X66017876Y-91996580D02*
X66684542Y-92996580D01*
X66684542Y-91996580D02*
X66017876Y-92996580D01*
X67589304Y-92996580D02*
X67017876Y-92996580D01*
X67303590Y-92996580D02*
X67303590Y-91996580D01*
X67208352Y-92139438D01*
X67113114Y-92234676D01*
X67017876Y-92282295D01*
%TO.C,J1*%
X74175580Y-99113933D02*
X74889866Y-99113933D01*
X75032723Y-99161552D01*
X75127961Y-99256790D01*
X75175580Y-99399647D01*
X75175580Y-99494885D01*
X75175580Y-98113933D02*
X75175580Y-98685361D01*
X75175580Y-98399647D02*
X74175580Y-98399647D01*
X74318438Y-98494885D01*
X74413676Y-98590123D01*
X74461295Y-98685361D01*
X76216285Y-96470742D02*
X76168666Y-96518361D01*
X76025809Y-96565980D01*
X75930571Y-96565980D01*
X75787714Y-96518361D01*
X75692476Y-96423123D01*
X75644857Y-96327885D01*
X75597238Y-96137409D01*
X75597238Y-95994552D01*
X75644857Y-95804076D01*
X75692476Y-95708838D01*
X75787714Y-95613600D01*
X75930571Y-95565980D01*
X76025809Y-95565980D01*
X76168666Y-95613600D01*
X76216285Y-95661219D01*
X77121047Y-96565980D02*
X76644857Y-96565980D01*
X76644857Y-95565980D01*
X77454380Y-96565980D02*
X77454380Y-95565980D01*
X78025809Y-96565980D02*
X77597238Y-95994552D01*
X78025809Y-95565980D02*
X77454380Y-96137409D01*
X79168666Y-96518361D02*
X79311523Y-96565980D01*
X79549619Y-96565980D01*
X79644857Y-96518361D01*
X79692476Y-96470742D01*
X79740095Y-96375504D01*
X79740095Y-96280266D01*
X79692476Y-96185028D01*
X79644857Y-96137409D01*
X79549619Y-96089790D01*
X79359142Y-96042171D01*
X79263904Y-95994552D01*
X79216285Y-95946933D01*
X79168666Y-95851695D01*
X79168666Y-95756457D01*
X79216285Y-95661219D01*
X79263904Y-95613600D01*
X79359142Y-95565980D01*
X79597238Y-95565980D01*
X79740095Y-95613600D01*
X80549619Y-96518361D02*
X80454380Y-96565980D01*
X80263904Y-96565980D01*
X80168666Y-96518361D01*
X80121047Y-96423123D01*
X80121047Y-96042171D01*
X80168666Y-95946933D01*
X80263904Y-95899314D01*
X80454380Y-95899314D01*
X80549619Y-95946933D01*
X80597238Y-96042171D01*
X80597238Y-96137409D01*
X80121047Y-96232647D01*
X81168666Y-96565980D02*
X81073428Y-96518361D01*
X81025809Y-96423123D01*
X81025809Y-95565980D01*
X81930571Y-96518361D02*
X81835333Y-96565980D01*
X81644857Y-96565980D01*
X81549619Y-96518361D01*
X81502000Y-96423123D01*
X81502000Y-96042171D01*
X81549619Y-95946933D01*
X81644857Y-95899314D01*
X81835333Y-95899314D01*
X81930571Y-95946933D01*
X81978190Y-96042171D01*
X81978190Y-96137409D01*
X81502000Y-96232647D01*
X82835333Y-96518361D02*
X82740095Y-96565980D01*
X82549619Y-96565980D01*
X82454380Y-96518361D01*
X82406761Y-96470742D01*
X82359142Y-96375504D01*
X82359142Y-96089790D01*
X82406761Y-95994552D01*
X82454380Y-95946933D01*
X82549619Y-95899314D01*
X82740095Y-95899314D01*
X82835333Y-95946933D01*
X83121047Y-95899314D02*
X83502000Y-95899314D01*
X83263904Y-95565980D02*
X83263904Y-96423123D01*
X83311523Y-96518361D01*
X83406761Y-96565980D01*
X83502000Y-96565980D01*
%TO.C,D1*%
X94181704Y-102814380D02*
X94181704Y-101814380D01*
X94419800Y-101814380D01*
X94562657Y-101862000D01*
X94657895Y-101957238D01*
X94705514Y-102052476D01*
X94753133Y-102242952D01*
X94753133Y-102385809D01*
X94705514Y-102576285D01*
X94657895Y-102671523D01*
X94562657Y-102766761D01*
X94419800Y-102814380D01*
X94181704Y-102814380D01*
X95705514Y-102814380D02*
X95134085Y-102814380D01*
X95419800Y-102814380D02*
X95419800Y-101814380D01*
X95324561Y-101957238D01*
X95229323Y-102052476D01*
X95134085Y-102100095D01*
X96558266Y-105100380D02*
X96558266Y-104100380D01*
X96939219Y-104100380D01*
X97034457Y-104148000D01*
X97082076Y-104195619D01*
X97129695Y-104290857D01*
X97129695Y-104433714D01*
X97082076Y-104528952D01*
X97034457Y-104576571D01*
X96939219Y-104624190D01*
X96558266Y-104624190D01*
X97463028Y-104100380D02*
X97701123Y-105100380D01*
X97891600Y-104386095D01*
X98082076Y-105100380D01*
X98320171Y-104100380D01*
X99272552Y-105100380D02*
X98939219Y-104624190D01*
X98701123Y-105100380D02*
X98701123Y-104100380D01*
X99082076Y-104100380D01*
X99177314Y-104148000D01*
X99224933Y-104195619D01*
X99272552Y-104290857D01*
X99272552Y-104433714D01*
X99224933Y-104528952D01*
X99177314Y-104576571D01*
X99082076Y-104624190D01*
X98701123Y-104624190D01*
%TO.C,R1*%
X98029733Y-98877380D02*
X97696400Y-98401190D01*
X97458304Y-98877380D02*
X97458304Y-97877380D01*
X97839257Y-97877380D01*
X97934495Y-97925000D01*
X97982114Y-97972619D01*
X98029733Y-98067857D01*
X98029733Y-98210714D01*
X97982114Y-98305952D01*
X97934495Y-98353571D01*
X97839257Y-98401190D01*
X97458304Y-98401190D01*
X98982114Y-98877380D02*
X98410685Y-98877380D01*
X98696400Y-98877380D02*
X98696400Y-97877380D01*
X98601161Y-98020238D01*
X98505923Y-98115476D01*
X98410685Y-98163095D01*
%TO.C,C3*%
X57557942Y-99963266D02*
X57605561Y-100010885D01*
X57653180Y-100153742D01*
X57653180Y-100248980D01*
X57605561Y-100391838D01*
X57510323Y-100487076D01*
X57415085Y-100534695D01*
X57224609Y-100582314D01*
X57081752Y-100582314D01*
X56891276Y-100534695D01*
X56796038Y-100487076D01*
X56700800Y-100391838D01*
X56653180Y-100248980D01*
X56653180Y-100153742D01*
X56700800Y-100010885D01*
X56748419Y-99963266D01*
X56653180Y-99629933D02*
X56653180Y-99010885D01*
X57034133Y-99344219D01*
X57034133Y-99201361D01*
X57081752Y-99106123D01*
X57129371Y-99058504D01*
X57224609Y-99010885D01*
X57462704Y-99010885D01*
X57557942Y-99058504D01*
X57605561Y-99106123D01*
X57653180Y-99201361D01*
X57653180Y-99487076D01*
X57605561Y-99582314D01*
X57557942Y-99629933D01*
%TO.C,U1*%
X55124180Y-75133104D02*
X55933704Y-75133104D01*
X56028942Y-75085485D01*
X56076561Y-75037866D01*
X56124180Y-74942628D01*
X56124180Y-74752152D01*
X56076561Y-74656914D01*
X56028942Y-74609295D01*
X55933704Y-74561676D01*
X55124180Y-74561676D01*
X56124180Y-73561676D02*
X56124180Y-74133104D01*
X56124180Y-73847390D02*
X55124180Y-73847390D01*
X55267038Y-73942628D01*
X55362276Y-74037866D01*
X55409895Y-74133104D01*
X138505580Y-80243085D02*
X138505580Y-80433561D01*
X138553200Y-80528800D01*
X138600819Y-80576419D01*
X138743676Y-80671657D01*
X138934152Y-80719276D01*
X139315104Y-80719276D01*
X139410342Y-80671657D01*
X139457961Y-80624038D01*
X139505580Y-80528800D01*
X139505580Y-80338323D01*
X139457961Y-80243085D01*
X139410342Y-80195466D01*
X139315104Y-80147847D01*
X139077009Y-80147847D01*
X138981771Y-80195466D01*
X138934152Y-80243085D01*
X138886533Y-80338323D01*
X138886533Y-80528800D01*
X138934152Y-80624038D01*
X138981771Y-80671657D01*
X139077009Y-80719276D01*
X138934152Y-79576419D02*
X138886533Y-79671657D01*
X138838914Y-79719276D01*
X138743676Y-79766895D01*
X138696057Y-79766895D01*
X138600819Y-79719276D01*
X138553200Y-79671657D01*
X138505580Y-79576419D01*
X138505580Y-79385942D01*
X138553200Y-79290704D01*
X138600819Y-79243085D01*
X138696057Y-79195466D01*
X138743676Y-79195466D01*
X138838914Y-79243085D01*
X138886533Y-79290704D01*
X138934152Y-79385942D01*
X138934152Y-79576419D01*
X138981771Y-79671657D01*
X139029390Y-79719276D01*
X139124628Y-79766895D01*
X139315104Y-79766895D01*
X139410342Y-79719276D01*
X139457961Y-79671657D01*
X139505580Y-79576419D01*
X139505580Y-79385942D01*
X139457961Y-79290704D01*
X139410342Y-79243085D01*
X139315104Y-79195466D01*
X139124628Y-79195466D01*
X139029390Y-79243085D01*
X138981771Y-79290704D01*
X138934152Y-79385942D01*
X138505580Y-78576419D02*
X138505580Y-78481180D01*
X138553200Y-78385942D01*
X138600819Y-78338323D01*
X138696057Y-78290704D01*
X138886533Y-78243085D01*
X139124628Y-78243085D01*
X139315104Y-78290704D01*
X139410342Y-78338323D01*
X139457961Y-78385942D01*
X139505580Y-78481180D01*
X139505580Y-78576419D01*
X139457961Y-78671657D01*
X139410342Y-78719276D01*
X139315104Y-78766895D01*
X139124628Y-78814514D01*
X138886533Y-78814514D01*
X138696057Y-78766895D01*
X138600819Y-78719276D01*
X138553200Y-78671657D01*
X138505580Y-78576419D01*
X138505580Y-77624038D02*
X138505580Y-77528800D01*
X138553200Y-77433561D01*
X138600819Y-77385942D01*
X138696057Y-77338323D01*
X138886533Y-77290704D01*
X139124628Y-77290704D01*
X139315104Y-77338323D01*
X139410342Y-77385942D01*
X139457961Y-77433561D01*
X139505580Y-77528800D01*
X139505580Y-77624038D01*
X139457961Y-77719276D01*
X139410342Y-77766895D01*
X139315104Y-77814514D01*
X139124628Y-77862133D01*
X138886533Y-77862133D01*
X138696057Y-77814514D01*
X138600819Y-77766895D01*
X138553200Y-77719276D01*
X138505580Y-77624038D01*
X138505580Y-76671657D02*
X138505580Y-76576419D01*
X138553200Y-76481180D01*
X138600819Y-76433561D01*
X138696057Y-76385942D01*
X138886533Y-76338323D01*
X139124628Y-76338323D01*
X139315104Y-76385942D01*
X139410342Y-76433561D01*
X139457961Y-76481180D01*
X139505580Y-76576419D01*
X139505580Y-76671657D01*
X139457961Y-76766895D01*
X139410342Y-76814514D01*
X139315104Y-76862133D01*
X139124628Y-76909752D01*
X138886533Y-76909752D01*
X138696057Y-76862133D01*
X138600819Y-76814514D01*
X138553200Y-76766895D01*
X138505580Y-76671657D01*
X139505580Y-75909752D02*
X138505580Y-75909752D01*
X138505580Y-75671657D01*
X138553200Y-75528800D01*
X138648438Y-75433561D01*
X138743676Y-75385942D01*
X138934152Y-75338323D01*
X139077009Y-75338323D01*
X139267485Y-75385942D01*
X139362723Y-75433561D01*
X139457961Y-75528800D01*
X139505580Y-75671657D01*
X139505580Y-75909752D01*
D14*
%TO.C,J3*%
X51476600Y-98002400D02*
X54136600Y-98002400D01*
X51476600Y-85242400D02*
X51476600Y-98002400D01*
X54136600Y-82642400D02*
X54136600Y-83972400D01*
X54136600Y-85242400D02*
X54136600Y-98002400D01*
X51476600Y-85242400D02*
X54136600Y-85242400D01*
X52806600Y-82642400D02*
X54136600Y-82642400D01*
D13*
%TO.C,XA1*%
X48209200Y-58140600D02*
X48209200Y-111480600D01*
X147269200Y-70840600D02*
X147269200Y-59664600D01*
X149809200Y-73380600D02*
X147269200Y-70840600D01*
X149809200Y-107670600D02*
X149809200Y-73380600D01*
X147269200Y-110210600D02*
X149809200Y-107670600D01*
X147269200Y-111480600D02*
X147269200Y-110210600D01*
X145745200Y-58140600D02*
X147269200Y-59664600D01*
X48209200Y-111480600D02*
X147269200Y-111480600D01*
X48209200Y-58140600D02*
X145745200Y-58140600D01*
D14*
%TO.C,C1*%
X91160000Y-104622000D02*
X91160000Y-103422000D01*
X87704437Y-100102000D02*
X91160000Y-100102000D01*
X87704437Y-104622000D02*
X91160000Y-104622000D01*
X85900000Y-100802000D02*
X86400000Y-100802000D01*
X91160000Y-100102000D02*
X91160000Y-101302000D01*
X86640000Y-103557563D02*
X87704437Y-104622000D01*
X86640000Y-103557563D02*
X86640000Y-103422000D01*
X86640000Y-101166437D02*
X86640000Y-101302000D01*
X86150000Y-100552000D02*
X86150000Y-101052000D01*
X86640000Y-101166437D02*
X87704437Y-100102000D01*
%TO.C,J2*%
X77053200Y-105774800D02*
X75723200Y-105774800D01*
X78323200Y-105774800D02*
X80923200Y-105774800D01*
X75723200Y-105774800D02*
X75723200Y-104444800D01*
X78323200Y-103114800D02*
X80923200Y-103114800D01*
X78323200Y-105774800D02*
X78323200Y-103114800D01*
X80923200Y-105774800D02*
X80923200Y-103114800D01*
%TO.C,X1*%
X73277400Y-105694200D02*
X73277400Y-94294200D01*
X60377400Y-106444200D02*
X72527400Y-106444200D01*
X60377400Y-94294200D02*
X60377400Y-106444200D01*
X72527400Y-93544200D02*
X61127400Y-93544200D01*
X72527400Y-106444200D02*
G75*
G03*
X73277400Y-105694200I0J750000D01*
G01*
X73277400Y-94294200D02*
G75*
G03*
X72527400Y-93544200I-750000J0D01*
G01*
X61127400Y-93544200D02*
G75*
G03*
X60377400Y-94294200I0J-750000D01*
G01*
%TO.C,J1*%
X77053200Y-100110600D02*
X75723200Y-100110600D01*
X75723200Y-100110600D02*
X75723200Y-98780600D01*
X78323200Y-100110600D02*
X83463200Y-100110600D01*
X78323200Y-97450600D02*
X83463200Y-97450600D01*
X83463200Y-100110600D02*
X83463200Y-97450600D01*
X78323200Y-100110600D02*
X78323200Y-97450600D01*
%TO.C,D1*%
X100506800Y-103497000D02*
X100506800Y-101227000D01*
X100506800Y-101227000D02*
X96621800Y-101227000D01*
X96621800Y-103497000D02*
X100506800Y-103497000D01*
%TO.C,R1*%
X98459058Y-100496900D02*
X97984542Y-100496900D01*
X98459058Y-99451900D02*
X97984542Y-99451900D01*
%TO.C,C3*%
X59260200Y-99681420D02*
X59260200Y-99962580D01*
X58240200Y-99681420D02*
X58240200Y-99962580D01*
%TO.C,U1*%
X56653200Y-79028800D02*
G75*
G03*
X56653200Y-77028800I0J1000000D01*
G01*
X56653200Y-66888800D02*
X56653200Y-77028800D01*
X138053200Y-66888800D02*
X56653200Y-66888800D01*
X56653200Y-79028800D02*
X56653200Y-89168800D01*
X138053200Y-89168800D02*
X138053200Y-66888800D01*
X56653200Y-89168800D02*
X138053200Y-89168800D01*
%TD*%
M02*
