M48
; DRILL file {KiCad (6.0.2)} date Mon Jul 18 22:22:12 2022
; FORMAT={-:-/ absolute / inch / decimal}
; #@! TF.CreationDate,2022-07-18T22:22:12-07:00
; #@! TF.GenerationSoftware,Kicad,Pcbnew,(6.0.2)
; #@! TF.FileFunction,Plated,1,2,PTH
FMAT,2
INCH
; #@! TA.AperFunction,Plated,PTH,ViaDrill
T1C0.0157
; #@! TA.AperFunction,Plated,PTH,ComponentDrill
T2C0.0315
; #@! TA.AperFunction,Plated,PTH,ComponentDrill
T3C0.0394
; #@! TA.AperFunction,Plated,PTH,ComponentDrill
T4C0.0400
%
G90
G05
T1
X2.1361Y-2.9972
X2.1361Y-3.0596
X2.1516Y-3.2489
X2.295Y-2.9068
X2.3187Y-2.7533
X2.334Y-2.816
X2.409Y-2.914
X2.4135Y-2.6974
X2.453Y-2.6997
X2.479Y-2.915
X2.4925Y-3.8475
X2.5208Y-3.5028
X2.5539Y-2.898
X2.5981Y-3.2171
X2.607Y-3.477
X2.6163Y-3.8469
X2.646Y-2.922
X2.6672Y-3.0184
X2.6689Y-3.453
X2.6938Y-2.9165
X2.6956Y-3.2216
X2.7556Y-2.7359
X2.7641Y-4.3482
X2.7866Y-3.2367
X2.7997Y-2.9239
X2.8387Y-2.8991
X2.8802Y-2.9386
X2.9031Y-3.3927
X2.9195Y-2.9386
X3.0273Y-3.0134
X3.0298Y-2.9741
X3.0554Y-3.3971
X3.0555Y-4.3285
X3.0785Y-3.1981
X3.0817Y-3.0489
X3.1357Y-3.9643
X3.151Y-2.904
X3.2026Y-3.4192
X3.2339Y-3.7116
X3.2481Y-3.2158
X3.3551Y-2.9563
X3.386Y-2.7966
X3.423Y-3.248
X3.4285Y-2.7428
X3.4829Y-3.4325
X3.4836Y-2.7138
X3.5451Y-3.4201
X3.578Y-3.248
X3.6369Y-2.68
X3.645Y-3.248
X3.6875Y-2.8856
X3.7043Y-2.697
X3.7111Y-3.2415
X3.7397Y-2.6635
X3.7545Y-2.9282
X3.8385Y-3.6229
X3.855Y-3.0111
X3.9113Y-3.3935
X3.928Y-3.241
X3.9283Y-2.9265
X3.9296Y-2.6882
X3.9616Y-3.7882
X3.982Y-2.9838
X4.0342Y-3.3863
X4.071Y-2.9215
X4.156Y-3.227
X4.1896Y-2.9276
X4.2002Y-3.4071
X4.225Y-2.7092
X4.2454Y-3.3169
X4.2511Y-2.8603
X4.3184Y-3.0939
X4.3351Y-3.3136
X4.37Y-3.049
X4.3853Y-2.8383
X4.4018Y-2.7457
X4.4431Y-2.7248
X4.4564Y-2.4069
X4.5777Y-2.6629
X4.5787Y-3.1259
X4.59Y-2.8905
X4.5912Y-3.6822
X4.6071Y-3.2533
X4.6102Y-3.331
X4.6558Y-2.9203
X4.6694Y-3.2969
X4.6769Y-2.9774
X4.6942Y-2.7025
X4.7001Y-3.8866
X4.7004Y-2.8841
X4.7059Y-3.4834
X4.7238Y-3.2174
X4.7365Y-3.374
X4.8065Y-2.8929
X4.8434Y-3.3718
X4.8457Y-2.7019
X4.8701Y-2.5005
X4.9195Y-3.1374
X4.9687Y-2.903
X4.9958Y-3.152
X5.0626Y-2.4466
X5.0664Y-3.5011
X5.1031Y-3.2982
X5.1083Y-2.7407
X5.1402Y-3.1518
X5.1613Y-3.2333
X5.1893Y-2.8367
X5.2021Y-3.2045
X5.2363Y-3.466
X5.2376Y-2.4467
X5.2659Y-3.2685
X5.3053Y-3.2808
X5.3748Y-2.6454
X5.3795Y-3.015
X5.3916Y-2.8533
X5.481Y-2.9843
X5.5416Y-2.722
T2
X2.2828Y-2.572
X2.2828Y-3.572
X2.3828Y-2.572
X2.3828Y-3.572
X2.481Y-3.7868
X2.481Y-4.0868
X2.4828Y-2.572
X2.4828Y-3.572
X2.5828Y-2.572
X2.5828Y-3.572
X2.6828Y-2.572
X2.6828Y-3.572
X2.781Y-3.7868
X2.781Y-4.0868
X2.7828Y-2.572
X2.7828Y-3.572
X2.8828Y-2.572
X2.8828Y-3.572
X2.9828Y-2.572
X2.9828Y-3.572
X3.0828Y-2.572
X3.0828Y-3.572
X3.1828Y-2.572
X3.1828Y-3.572
X3.2828Y-2.572
X3.2828Y-3.572
X3.3828Y-2.572
X3.3828Y-3.572
X3.4828Y-2.572
X3.4828Y-3.572
X3.5828Y-2.572
X3.5828Y-3.572
X3.6828Y-2.572
X3.6828Y-3.572
X3.7828Y-2.572
X3.7828Y-3.572
X3.8828Y-2.572
X3.8828Y-3.572
X3.9828Y-2.572
X3.9828Y-3.572
X4.0828Y-2.572
X4.0828Y-3.572
X4.1828Y-2.572
X4.1828Y-3.572
X4.2828Y-2.572
X4.2828Y-3.572
X4.3828Y-2.572
X4.3828Y-3.572
X4.4828Y-2.572
X4.4828Y-3.572
X4.5828Y-2.572
X4.5828Y-3.572
X4.6828Y-2.572
X4.6828Y-3.572
X4.7828Y-2.572
X4.7828Y-3.572
X4.8828Y-2.572
X4.8828Y-3.572
X4.9828Y-2.572
X4.9828Y-3.572
X5.0828Y-2.572
X5.0828Y-3.572
X5.1828Y-2.572
X5.1828Y-3.572
X5.2828Y-2.572
X5.2828Y-3.572
X5.3828Y-2.572
X5.3828Y-3.572
T3
X2.079Y-3.306
X2.079Y-3.406
X2.079Y-3.506
X2.079Y-3.606
X2.079Y-3.706
X2.079Y-3.806
X3.0336Y-3.889
X3.0336Y-4.112
X3.1336Y-3.889
X3.1336Y-4.112
X3.2336Y-3.889
T4
X2.638Y-2.389
X2.738Y-2.389
X2.838Y-2.389
X2.938Y-2.389
X2.998Y-4.289
X3.038Y-2.389
X3.098Y-4.289
X3.138Y-2.389
X3.198Y-4.289
X3.238Y-2.389
X3.298Y-4.289
X3.338Y-2.389
X3.398Y-4.289
X3.438Y-2.389
X3.498Y-4.289
X3.538Y-2.389
X3.598Y-4.289
X3.698Y-2.389
X3.698Y-4.289
X3.798Y-2.389
X3.898Y-2.389
X3.898Y-4.289
X3.998Y-2.389
X3.998Y-4.289
X4.098Y-2.389
X4.098Y-4.289
X4.198Y-2.389
X4.198Y-4.289
X4.298Y-2.389
X4.298Y-4.289
X4.398Y-2.389
X4.398Y-4.289
X4.403Y-3.189
X4.403Y-3.289
X4.403Y-3.389
X4.498Y-4.289
X4.503Y-3.189
X4.503Y-3.289
X4.503Y-3.389
X4.598Y-2.389
X4.598Y-4.289
X4.698Y-2.389
X4.798Y-2.389
X4.798Y-4.289
X4.898Y-2.389
X4.898Y-4.289
X4.998Y-2.389
X4.998Y-4.289
X5.098Y-2.389
X5.098Y-4.289
X5.198Y-2.389
X5.198Y-4.289
X5.298Y-2.389
X5.298Y-4.289
X5.398Y-4.289
X5.498Y-4.289
X5.598Y-2.389
X5.598Y-2.489
X5.598Y-2.589
X5.598Y-2.689
X5.598Y-2.789
X5.598Y-2.889
X5.598Y-2.989
X5.598Y-3.089
X5.598Y-3.189
X5.598Y-3.289
X5.598Y-3.389
X5.598Y-3.489
X5.598Y-3.589
X5.598Y-3.689
X5.598Y-3.789
X5.598Y-3.889
X5.598Y-3.989
X5.598Y-4.089
X5.698Y-2.389
X5.698Y-2.489
X5.698Y-2.589
X5.698Y-2.689
X5.698Y-2.789
X5.698Y-2.889
X5.698Y-2.989
X5.698Y-3.089
X5.698Y-3.189
X5.698Y-3.289
X5.698Y-3.389
X5.698Y-3.489
X5.698Y-3.589
X5.698Y-3.689
X5.698Y-3.789
X5.698Y-3.889
X5.698Y-3.989
X5.698Y-4.089
T0
M30
