%TF.GenerationSoftware,KiCad,Pcbnew,(6.0.2)*%
%TF.CreationDate,2022-07-18T22:22:09-07:00*%
%TF.ProjectId,Mega68k,4d656761-3638-46b2-9e6b-696361645f70,rev?*%
%TF.SameCoordinates,Original*%
%TF.FileFunction,Paste,Bot*%
%TF.FilePolarity,Positive*%
%FSLAX46Y46*%
G04 Gerber Fmt 4.6, Leading zero omitted, Abs format (unit mm)*
G04 Created by KiCad (PCBNEW (6.0.2)) date 2022-07-18 22:22:09*
%MOMM*%
%LPD*%
G01*
G04 APERTURE LIST*
G04 Aperture macros list*
%AMRoundRect*
0 Rectangle with rounded corners*
0 $1 Rounding radius*
0 $2 $3 $4 $5 $6 $7 $8 $9 X,Y pos of 4 corners*
0 Add a 4 corners polygon primitive as box body*
4,1,4,$2,$3,$4,$5,$6,$7,$8,$9,$2,$3,0*
0 Add four circle primitives for the rounded corners*
1,1,$1+$1,$2,$3*
1,1,$1+$1,$4,$5*
1,1,$1+$1,$6,$7*
1,1,$1+$1,$8,$9*
0 Add four rect primitives between the rounded corners*
20,1,$1+$1,$2,$3,$4,$5,0*
20,1,$1+$1,$4,$5,$6,$7,0*
20,1,$1+$1,$6,$7,$8,$9,0*
20,1,$1+$1,$8,$9,$2,$3,0*%
G04 Aperture macros list end*
%ADD10RoundRect,0.150000X-0.150000X0.875000X-0.150000X-0.875000X0.150000X-0.875000X0.150000X0.875000X0*%
%ADD11RoundRect,0.225000X0.250000X-0.225000X0.250000X0.225000X-0.250000X0.225000X-0.250000X-0.225000X0*%
%ADD12RoundRect,0.225000X-0.225000X-0.250000X0.225000X-0.250000X0.225000X0.250000X-0.225000X0.250000X0*%
G04 APERTURE END LIST*
D10*
%TO.C,U3*%
X87858600Y-71453400D03*
X89128600Y-71453400D03*
X90398600Y-71453400D03*
X91668600Y-71453400D03*
X92938600Y-71453400D03*
X94208600Y-71453400D03*
X95478600Y-71453400D03*
X96748600Y-71453400D03*
X98018600Y-71453400D03*
X99288600Y-71453400D03*
X100558600Y-71453400D03*
X101828600Y-71453400D03*
X103098600Y-71453400D03*
X104368600Y-71453400D03*
X105638600Y-71453400D03*
X106908600Y-71453400D03*
X106908600Y-84553400D03*
X105638600Y-84553400D03*
X104368600Y-84553400D03*
X103098600Y-84553400D03*
X101828600Y-84553400D03*
X100558600Y-84553400D03*
X99288600Y-84553400D03*
X98018600Y-84553400D03*
X96748600Y-84553400D03*
X95478600Y-84553400D03*
X94208600Y-84553400D03*
X92938600Y-84553400D03*
X91668600Y-84553400D03*
X90398600Y-84553400D03*
X89128600Y-84553400D03*
X87858600Y-84553400D03*
%TD*%
D11*
%TO.C,C5*%
X84683600Y-78778400D03*
X84683600Y-77228400D03*
%TD*%
D12*
%TO.C,C2*%
X89776000Y-68529200D03*
X91326000Y-68529200D03*
%TD*%
D10*
%TO.C,U2*%
X61163200Y-71428000D03*
X62433200Y-71428000D03*
X63703200Y-71428000D03*
X64973200Y-71428000D03*
X66243200Y-71428000D03*
X67513200Y-71428000D03*
X68783200Y-71428000D03*
X70053200Y-71428000D03*
X71323200Y-71428000D03*
X72593200Y-71428000D03*
X73863200Y-71428000D03*
X75133200Y-71428000D03*
X76403200Y-71428000D03*
X77673200Y-71428000D03*
X78943200Y-71428000D03*
X80213200Y-71428000D03*
X80213200Y-84528000D03*
X78943200Y-84528000D03*
X77673200Y-84528000D03*
X76403200Y-84528000D03*
X75133200Y-84528000D03*
X73863200Y-84528000D03*
X72593200Y-84528000D03*
X71323200Y-84528000D03*
X70053200Y-84528000D03*
X68783200Y-84528000D03*
X67513200Y-84528000D03*
X66243200Y-84528000D03*
X64973200Y-84528000D03*
X63703200Y-84528000D03*
X62433200Y-84528000D03*
X61163200Y-84528000D03*
%TD*%
D11*
%TO.C,C4*%
X57734200Y-78803800D03*
X57734200Y-77253800D03*
%TD*%
M02*
